<svg width="25" height="20" viewBox="0 0 25 20" fill="none" xmlns="http://www.w3.org/2000/svg">
<path d="M23.7125 10.7125L14.7125 19.7125C14.5214 19.8973 14.2659 20.0007 14 20.0007C13.7341 20.0007 13.4786 19.8973 13.2875 19.7125C13.0997 19.5229 12.9944 19.2669 12.9944 19C12.9944 18.7332 13.0997 18.4771 13.2875 18.2875L20.5875 11H1C0.734784 11 0.48043 10.8947 0.292893 10.7071C0.105357 10.5196 0 10.2652 0 10C0 9.73481 0.105357 9.48045 0.292893 9.29292C0.48043 9.10538 0.734784 9.00002 1 9.00002H20.5875L13.2875 1.71252C13.128 1.51823 13.0465 1.27156 13.0589 1.02051C13.0712 0.769459 13.1765 0.531968 13.3542 0.354233C13.5319 0.176499 13.7694 0.0712281 14.0205 0.0588981C14.2715 0.046568 14.5182 0.12806 14.7125 0.287523L23.7125 9.28752C23.9003 9.47712 24.0056 9.73318 24.0056 10C24.0056 10.2669 23.9003 10.5229 23.7125 10.7125Z" fill="#471515"/>
</svg>
