<svg width="26" height="22" viewBox="0 0 26 22" fill="none" xmlns="http://www.w3.org/2000/svg">
<path d="M24 0H2C1.46957 0 0.960859 0.210714 0.585786 0.585786C0.210714 0.960859 0 1.46957 0 2V20C0 20.5304 0.210714 21.0391 0.585786 21.4142C0.960859 21.7893 1.46957 22 2 22H24C24.5304 22 25.0391 21.7893 25.4142 21.4142C25.7893 21.0391 26 20.5304 26 20V2C26 1.46957 25.7893 0.960859 25.4142 0.585786C25.0391 0.210714 24.5304 0 24 0ZM20 12C20 12.2652 19.8946 12.5196 19.7071 12.7071C19.5196 12.8946 19.2652 13 19 13H9.4125L10.7125 14.2875C10.9003 14.4771 11.0056 14.7332 11.0056 15C11.0056 15.2668 10.9003 15.5229 10.7125 15.7125C10.5214 15.8973 10.2659 16.0006 10 16.0006C9.73412 16.0006 9.47864 15.8973 9.2875 15.7125L6.2875 12.7125C6.09972 12.5229 5.99437 12.2668 5.99437 12C5.99437 11.7332 6.09972 11.4771 6.2875 11.2875L9.2875 8.2875C9.4818 8.12804 9.72846 8.04655 9.97951 8.05888C10.2306 8.07121 10.4681 8.17648 10.6458 8.35421C10.8235 8.53195 10.9288 8.76944 10.9411 9.02049C10.9535 9.27154 10.872 9.5182 10.7125 9.7125L9.4125 11H18V8C18 7.73478 18.1054 7.48043 18.2929 7.29289C18.4804 7.10536 18.7348 7 19 7C19.2652 7 19.5196 7.10536 19.7071 7.29289C19.8946 7.48043 20 7.73478 20 8V12Z" fill="#471515"/>
</svg>
