<svg width="28" height="23" viewBox="0 0 28 23" fill="none" xmlns="http://www.w3.org/2000/svg">
<path d="M26.5 21H25.5V1C25.5 0.734784 25.3946 0.48043 25.2071 0.292893C25.0196 0.105357 24.7652 0 24.5 0H17.5C17.2348 0 16.9804 0.105357 16.7929 0.292893C16.6054 0.48043 16.5 0.734784 16.5 1V6H10.5C10.2348 6 9.98043 6.10536 9.79289 6.29289C9.60536 6.48043 9.5 6.73478 9.5 7V12H3.5C3.23478 12 2.98043 12.1054 2.79289 12.2929C2.60536 12.4804 2.5 12.7348 2.5 13V21H1.5C1.23478 21 0.98043 21.1054 0.792893 21.2929C0.605357 21.4804 0.5 21.7348 0.5 22C0.5 22.2652 0.605357 22.5196 0.792893 22.7071C0.98043 22.8946 1.23478 23 1.5 23H26.5C26.7652 23 27.0196 22.8946 27.2071 22.7071C27.3946 22.5196 27.5 22.2652 27.5 22C27.5 21.7348 27.3946 21.4804 27.2071 21.2929C27.0196 21.1054 26.7652 21 26.5 21ZM11.5 8H16.5V21H11.5V8ZM4.5 14H9.5V21H4.5V14Z" fill="#471515"/>
</svg>
